HIERARCHY
ROOT Hips
{
	OFFSET	0.0000	0.0000	0.0000
	CHANNELS 6 Xposition Yposition Zposition Xrotation Yrotation Zrotation
	JOINT Spine
	{
		OFFSET	0.0000	9.5923	-5.1908
		CHANNELS 3 Xrotation Yrotation Zrotation
		JOINT Spine1
		{
			OFFSET	0.0000	8.7537	0.4573
			CHANNELS 3 Xrotation Yrotation Zrotation
			JOINT Spine2
			{
				OFFSET	0.0000	10.8317	-2.4110
				CHANNELS 3 Xrotation Yrotation Zrotation
				JOINT Neck
				{
					OFFSET	0.0000	24.4089	-0.5076
					CHANNELS 3 Xrotation Yrotation Zrotation
					JOINT Head
					{
						OFFSET	-0.0001	13.7840	3.7493
						CHANNELS 3 Xrotation Yrotation Zrotation
						End Site
						{
							OFFSET	0.0001	19.2597	0.5750
						}
					}
				}
				JOINT LeftShoulder
				{
					OFFSET	2.4643	23.5558	8.0704
					CHANNELS 3 Xrotation Yrotation Zrotation
					JOINT LeftArm
					{
						OFFSET	14.3966	3.3787	-5.4672
						CHANNELS 3 Xrotation Yrotation Zrotation
						JOINT LeftForeArm
						{
							OFFSET	30.5813	-0.1084	-0.2650
							CHANNELS 3 Xrotation Yrotation Zrotation
							JOINT LeftHand
							{
								OFFSET	25.5113	0.0740	-0.1528
								CHANNELS 3 Xrotation Yrotation Zrotation
								JOINT LeftHandIndex1
								{
									OFFSET	9.8875	0.8647	2.7462
									CHANNELS 3 Xrotation Yrotation Zrotation
									JOINT LeftHandIndex2
									{
										OFFSET	3.6984	-0.9018	0.6517
										CHANNELS 3 Xrotation Yrotation Zrotation
										JOINT LeftHandIndex3
										{
											OFFSET	2.5248	-0.6158	0.4450
											CHANNELS 3 Xrotation Yrotation Zrotation
											End Site
											{
												OFFSET	1.7966	-0.5363	0.2914
											}
										}
									}
								}
								JOINT LeftHandMiddle1
								{
									OFFSET	10.0350	0.9986	0.2391
									CHANNELS 3 Xrotation Yrotation Zrotation
									JOINT LeftHandMiddle2
									{
										OFFSET	4.5729	0.0128	-0.0270
										CHANNELS 3 Xrotation Yrotation Zrotation
										JOINT LeftHandMiddle3
										{
											OFFSET	2.5347	0.0078	-0.0154
											CHANNELS 3 Xrotation Yrotation Zrotation
											End Site
											{
												OFFSET	2.2767	-0.1608	0.0031
											}
										}
									}
								}
								JOINT LeftHandRing1
								{
									OFFSET	9.5103	0.6665	-2.2500
									CHANNELS 3 Xrotation Yrotation Zrotation
									JOINT LeftHandRing2
									{
										OFFSET	4.1494	-0.2101	-0.2598
										CHANNELS 3 Xrotation Yrotation Zrotation
										JOINT LeftHandRing3
										{
											OFFSET	2.3645	-0.1190	-0.1485
											CHANNELS 3 Xrotation Yrotation Zrotation
											End Site
											{
												OFFSET	2.0907	-0.2570	-0.0988
											}
										}
									}
								}
								JOINT LeftHandPinky1
								{
									OFFSET	8.8251	-0.6706	-3.8857
									CHANNELS 3 Xrotation Yrotation Zrotation
									JOINT LeftHandPinky2
									{
										OFFSET	2.5523	-0.5322	-0.7045
										CHANNELS 3 Xrotation Yrotation Zrotation
										JOINT LeftHandPinky3
										{
											OFFSET	1.8716	-0.3898	-0.5170
											CHANNELS 3 Xrotation Yrotation Zrotation
											End Site
											{
												OFFSET	1.6612	-0.4564	-0.3811
											}
										}
									}
								}
								JOINT LeftHandThumb1
								{
									OFFSET	2.0454	-1.5481	1.5506
									CHANNELS 3 Xrotation Yrotation Zrotation
									JOINT LeftHandThumb2
									{
										OFFSET	3.8081	-1.2506	2.8711
										CHANNELS 3 Xrotation Yrotation Zrotation
										JOINT LeftHandThumb3
										{
											OFFSET	2.5076	-0.8973	1.8066
											CHANNELS 3 Xrotation Yrotation Zrotation
											End Site
											{
												OFFSET	1.8440	-0.6348	1.2627
											}
										}
									}
								}
							}
						}
					}
				}
				JOINT RightShoulder
				{
					OFFSET	-2.4643	23.5558	8.0703
					CHANNELS 3 Xrotation Yrotation Zrotation
					JOINT RightArm
					{
						OFFSET	-14.3992	3.3793	-5.4681
						CHANNELS 3 Xrotation Yrotation Zrotation
						JOINT RightForeArm
						{
							OFFSET	-30.5813	-0.1084	-0.2650
							CHANNELS 3 Xrotation Yrotation Zrotation
							JOINT RightHand
							{
								OFFSET	-25.5113	0.0740	-0.1528
								CHANNELS 3 Xrotation Yrotation Zrotation
								JOINT RightHandIndex1
								{
									OFFSET	-9.8875	0.8648	2.7462
									CHANNELS 3 Xrotation Yrotation Zrotation
									JOINT RightHandIndex2
									{
										OFFSET	-3.6984	-0.9018	0.6517
										CHANNELS 3 Xrotation Yrotation Zrotation
										JOINT RightHandIndex3
										{
											OFFSET	-2.5248	-0.6160	0.4450
											CHANNELS 3 Xrotation Yrotation Zrotation
											End Site
											{
												OFFSET	-1.7966	-0.5363	0.2914
											}
										}
									}
								}
								JOINT RightHandMiddle1
								{
									OFFSET	-10.0350	0.9986	0.2391
									CHANNELS 3 Xrotation Yrotation Zrotation
									JOINT RightHandMiddle2
									{
										OFFSET	-4.5729	0.0128	-0.0270
										CHANNELS 3 Xrotation Yrotation Zrotation
										JOINT RightHandMiddle3
										{
											OFFSET	-2.5347	0.0078	-0.0155
											CHANNELS 3 Xrotation Yrotation Zrotation
											End Site
											{
												OFFSET	-2.2767	-0.1608	0.0031
											}
										}
									}
								}
								JOINT RightHandRing1
								{
									OFFSET	-9.5103	0.6665	-2.2500
									CHANNELS 3 Xrotation Yrotation Zrotation
									JOINT RightHandRing2
									{
										OFFSET	-4.1494	-0.2101	-0.2598
										CHANNELS 3 Xrotation Yrotation Zrotation
										JOINT RightHandRing3
										{
											OFFSET	-2.3646	-0.1190	-0.1485
											CHANNELS 3 Xrotation Yrotation Zrotation
											End Site
											{
												OFFSET	-2.0907	-0.2571	-0.0988
											}
										}
									}
								}
								JOINT RightHandPinky1
								{
									OFFSET	-8.8252	-0.6706	-3.8857
									CHANNELS 3 Xrotation Yrotation Zrotation
									JOINT RightHandPinky2
									{
										OFFSET	-2.5523	-0.5322	-0.7045
										CHANNELS 3 Xrotation Yrotation Zrotation
										JOINT RightHandPinky3
										{
											OFFSET	-1.8716	-0.3897	-0.5170
											CHANNELS 3 Xrotation Yrotation Zrotation
											End Site
											{
												OFFSET	-1.6612	-0.4564	-0.3811
											}
										}
									}
								}
								JOINT RightHandThumb1
								{
									OFFSET	-2.0454	-1.5480	1.5505
									CHANNELS 3 Xrotation Yrotation Zrotation
									JOINT RightHandThumb2
									{
										OFFSET	-3.8081	-1.2508	2.8712
										CHANNELS 3 Xrotation Yrotation Zrotation
										JOINT RightHandThumb3
										{
											OFFSET	-2.5075	-0.8972	1.8066
											CHANNELS 3 Xrotation Yrotation Zrotation
											End Site
											{
												OFFSET	-1.8440	-0.6348	1.2627
											}
										}
									}
								}
							}
						}
					}
				}
			}
		}
	}
	JOINT RightUpLeg
	{
		OFFSET	-10.2614	4.3360	-0.8458
		CHANNELS 3 Xrotation Yrotation Zrotation
		JOINT RightLeg
		{
			OFFSET	-0.8211	-44.6324	0.0000
			CHANNELS 3 Xrotation Yrotation Zrotation
			JOINT RightFoot
			{
				OFFSET	0.0000	-43.8263	0.0000
				CHANNELS 3 Xrotation Yrotation Zrotation
				JOINT RightToeBase
				{
					OFFSET	0.0000	-4.8169	10.0728
					CHANNELS 3 Xrotation Yrotation Zrotation
					End Site
					{
						OFFSET	0.0000	0.0000	6.7574
					}
				}
			}
		}
	}
	JOINT LeftUpLeg
	{
		OFFSET	10.2613	4.3363	-0.8458
		CHANNELS 3 Xrotation Yrotation Zrotation
		JOINT LeftLeg
		{
			OFFSET	0.8212	-44.6327	0.0000
			CHANNELS 3 Xrotation Yrotation Zrotation
			JOINT LeftFoot
			{
				OFFSET	0.0000	-43.8263	0.0000
				CHANNELS 3 Xrotation Yrotation Zrotation
				JOINT LeftToeBase
				{
					OFFSET	0.0000	-4.8169	10.0728
					CHANNELS 3 Xrotation Yrotation Zrotation
					End Site
					{
						OFFSET	0.0000	0.0000	6.7574
					}
				}
			}
		}
	}
}
MOTION
Frames:	4
Frame Time: 0.0333333000
	53.6935	121.6901	-30.4975	12.509120	24.423160	-0.314423	0.000000	0.000000	0.000000	0.545042	-0.109314	-0.299130	-5.202409	-6.637713	-4.875084	-1.389371	-0.342899	1.208666	-1.108777	-0.046130	1.167060	0.000001	-0.000001	11.149650	-40.125070	-11.124140	15.019430	0.075233	-24.278470	0.006572	0.000000	0.000002	-0.000002	0.000001	-0.000001	-0.000002	0.000001	0.000001	-0.000002	0.000001	0.000001	-0.000002	0.000001	-0.000001	-0.000002	0.000001	0.000001	-0.000002	0.000001	0.000001	-0.000002	0.000001	-0.000001	-0.000002	0.000001	0.000001	-0.000002	0.000001	0.000001	-0.000002	0.000001	-0.000001	-0.000002	0.000001	0.000001	-0.000002	0.000001	0.000001	-0.000002	0.000001	-0.000001	-0.000002	0.000001	0.000001	-0.000002	0.000001	0.000001	-0.000002	0.000001	-0.000001	-1.495614	-26.508870	-61.576210	-36.512570	0.173115	47.492760	-0.057096	0.000000	-0.000001	0.000000	0.000000	0.000000	0.000000	0.000000	0.000000	0.000000	0.000000	0.000000	0.000000	0.000000	0.000000	0.000000	0.000000	0.000000	0.000000	0.000000	0.000000	0.000000	0.000000	0.000000	0.000000	0.000000	0.000000	0.000000	0.000000	0.000000	0.000000	0.000000	0.000000	0.000000	0.000000	0.000000	0.000000	0.000000	0.000000	0.000000	0.000000	0.000000	0.000000	0.000000	0.000000	0.000000	0.000000	0.000000	0.000000	10.019520	5.716964	8.480248	17.832940	0.000002	-0.000001	2.591443	-1.125588	-0.498198	-0.000006	-0.000002	-0.000001	-48.534000	2.669633	-2.444337	123.672400	0.000003	-0.000003	-2.946863	4.248658	2.208666	0.000000	0.000000	0.000000
	54.5529	123.8556	-27.2171	10.292180	23.943700	-0.346066	0.000000	0.000000	0.000000	0.496278	-0.191611	-0.397438	-5.746259	-8.799815	-5.021297	-0.768853	-0.387049	1.386841	-0.810844	-0.042590	1.160302	-0.000001	-0.000001	11.463950	-41.257740	-12.403660	19.384940	0.074113	-24.237000	0.006687	0.000002	0.000000	-0.000001	0.000000	0.000001	-0.000001	0.000000	0.000001	-0.000001	0.000000	0.000001	-0.000001	0.000000	0.000001	-0.000001	0.000000	0.000001	-0.000001	0.000000	0.000001	-0.000001	0.000000	0.000001	-0.000001	0.000000	0.000001	-0.000001	0.000000	0.000001	-0.000001	0.000000	0.000001	-0.000001	0.000000	0.000001	-0.000001	0.000000	0.000001	-0.000001	0.000000	0.000001	-0.000001	0.000000	0.000001	-0.000001	0.000000	0.000001	-0.000001	0.000000	0.000002	-2.551058	-31.019890	-59.298320	-43.804460	0.167276	46.497440	-0.053353	0.000000	-0.000001	0.000000	0.000000	0.000000	0.000000	0.000000	0.000000	0.000000	0.000000	0.000000	0.000000	0.000000	0.000000	0.000000	0.000000	0.000000	0.000000	0.000000	0.000000	0.000000	0.000000	0.000000	0.000000	0.000000	0.000000	0.000000	0.000000	0.000000	0.000000	0.000000	0.000000	0.000000	0.000000	0.000000	0.000000	0.000000	0.000000	0.000000	0.000000	0.000000	0.000000	0.000000	0.000000	0.000000	0.000000	0.000000	0.000000	17.506290	8.161847	10.860360	23.152220	0.000004	-0.000003	0.926323	-0.971001	-0.451520	-0.000003	-0.000001	-0.000001	-43.935770	1.153364	-0.851648	114.671800	0.000004	-0.000005	-1.993690	3.028583	1.512330	0.000001	0.000000	0.000000
	55.4558	125.2934	-24.0107	7.693130	21.128840	0.073985	-0.000001	0.000000	0.000000	0.468082	-0.271357	-0.492161	-5.168017	-7.543157	-4.723982	-0.446762	-0.375260	1.357776	-0.770489	-0.043624	1.193273	0.000000	-0.000001	12.183250	-42.304340	-13.720210	23.092610	0.069609	-22.700990	0.005161	0.000000	0.000001	0.000000	0.000000	0.000001	0.000000	0.000000	0.000001	0.000000	0.000000	0.000001	0.000000	0.000000	0.000001	0.000000	0.000000	0.000001	0.000000	0.000000	0.000001	0.000000	0.000000	0.000001	0.000000	0.000000	0.000001	0.000000	0.000000	0.000001	0.000000	0.000000	0.000001	0.000000	0.000000	0.000001	0.000000	0.000000	0.000001	0.000000	0.000000	0.000001	0.000000	0.000000	0.000001	0.000000	0.000000	0.000001	0.000000	0.000000	0.000000	-3.108315	-35.903930	-58.783060	-49.936160	0.170255	47.072280	-0.055619	0.000000	0.000000	0.000002	0.000000	0.000000	-0.000001	0.000000	0.000000	-0.000001	0.000000	0.000000	-0.000001	0.000000	0.000000	-0.000001	0.000000	0.000000	-0.000001	0.000000	0.000000	-0.000001	0.000000	0.000000	-0.000001	0.000000	0.000000	-0.000001	0.000000	0.000000	-0.000001	0.000000	0.000000	-0.000001	0.000000	0.000000	-0.000001	0.000000	0.000000	-0.000001	0.000000	0.000000	-0.000001	0.000000	0.000000	-0.000001	0.000000	0.000000	-0.000001	25.869440	9.975242	10.618030	28.627470	0.000000	0.000001	0.845668	-0.410582	-0.199191	-0.000004	-0.000002	0.000000	-38.475730	1.811142	1.502115	103.385500	0.000010	-0.000001	0.110268	1.330204	0.597982	0.000003	0.000001	-0.000001
	56.4527	125.6695	-21.1264	5.561290	17.886200	0.108054	0.000000	0.000001	0.000000	0.461254	-0.348601	-0.582352	-4.043648	-2.940596	-4.282791	-0.473708	-0.389037	1.407958	-0.957726	-0.051238	1.339869	0.000000	-0.000002	12.644120	-42.902560	-14.847990	25.124260	0.063241	-20.332020	0.003042	0.000000	0.000000	0.000000	0.000000	0.000000	0.000000	0.000000	0.000000	0.000000	0.000000	0.000000	0.000000	0.000000	0.000000	0.000000	0.000000	0.000000	0.000000	0.000000	0.000000	0.000000	0.000000	0.000000	0.000000	0.000000	0.000000	0.000000	0.000000	0.000000	0.000000	0.000000	0.000000	0.000000	0.000000	0.000000	0.000000	0.000000	0.000000	0.000000	0.000000	0.000000	0.000000	0.000000	0.000000	0.000000	0.000000	0.000000	0.000000	0.000000	-0.000001	-3.261229	-47.915500	-62.695840	-61.600880	0.205567	52.601260	-0.080206	0.000000	0.000000	0.000000	0.000000	0.000000	0.000000	0.000000	0.000000	0.000000	0.000000	0.000000	0.000000	0.000000	0.000000	0.000000	0.000000	0.000000	0.000000	0.000000	0.000000	0.000000	0.000000	0.000000	0.000000	0.000000	0.000000	0.000000	0.000000	0.000000	0.000000	0.000000	0.000000	0.000000	0.000000	0.000000	0.000000	0.000000	0.000000	0.000000	0.000000	0.000000	0.000000	0.000000	0.000000	0.000000	0.000000	0.000000	0.000000	33.457260	11.710190	8.519127	35.818070	-0.000004	0.000001	1.450429	0.810525	0.370137	0.000001	0.000001	-0.000001	-33.192120	2.697250	3.116939	91.817150	0.000004	0.000001	3.479135	1.374341	0.578827	0.000000	0.000000	0.000000
